<svg t="1659376520706" class="icon" viewBox="0 0 1024 1024" version="1.1" xmlns="http://www.w3.org/2000/svg" p-id="9350" width="32" height="32"><path d="M282.766507 610.432L100.494507 401.92 370.361173 340.48 512.014507 102.656l141.610666 237.909333 269.824 61.397334-182.272 208.512 27.306667 300.757333a42.666667 42.666667 0 0 0 84.992-7.722667l-24.021333-264.405333 174.634666-199.722667c38.144-43.648 19.2-102.229333-37.418666-115.114666l-258.474667-58.794667-135.68-228.010667c-29.738667-49.877333-91.306667-49.92-121.045333 0L315.74784 265.429333 57.273173 324.224C0.953173 337.066667-18.33216 395.648 19.854507 439.338667l174.634666 199.722666-24.021333 264.405334c-5.248 57.770667 44.544 94.037333 97.877333 71.125333l260.48-111.786667a42.666667 42.666667 0 1 0-33.706666-78.378666L257.721173 886.314667l25.045334-275.882667z"  p-id="9351"></path></svg>