<svg t="1659377614388" class="icon" viewBox="0 0 1024 1024" version="1.1" xmlns="http://www.w3.org/2000/svg" p-id="17131" width="200" height="200">
  <path d="M512 0C229.7 0 0 229.7 0 512s229.7 512 512 512 512-229.7 512-512S794.3 0 512 0z m0 979.5C254.2 979.5 44.5 769.8 44.5 512S254.2 44.5 512 44.5 979.5 254.2 979.5 512 769.8 979.5 512 979.5z" fill="" p-id="17132"></path>
  <path d="M878.7 426.7c-3.7-11.4-13.4-19.5-25.2-21.2L636.8 374l-96.9-196.3c-5.2-10.7-16-17.4-27.9-17.4-11.9 0-22.6 6.7-27.9 17.4L387.2 374l-216.7 31.5c-11.9 1.7-21.5 9.8-25.2 21.2-3.7 11.3-0.7 23.6 7.9 31.9L310 611.4l-37 215.8c-2 11.8 2.7 23.5 12.4 30.5 5.5 4 11.9 6 18.3 6 4.9 0 9.9-1.2 14.5-3.6L512 758.2l193.8 102c10.5 5.5 23.1 4.6 32.8-2.4s14.4-18.7 12.4-30.5l-37-215.8 156.8-152.9c8.6-8.3 11.6-20.5 7.9-31.9z m-204.1 161c-5.2 5.1-7.6 12.5-6.4 19.7l34.4 200.7-180.2-94.7c-3.3-1.7-6.8-2.6-10.4-2.6s-7.1 0.9-10.4 2.7l-180.2 94.7 34.4-200.7c1.2-7.2-1.2-14.6-6.4-19.7L203.6 445.7l201.5-29.3c7.3-1.1 13.6-5.6 16.8-12.2L512 221.6l90.1 182.5c3.3 6.6 9.5 11.1 16.8 12.2l201.5 29.3-145.8 142.1z" fill="" p-id="17133"></path>
</svg>