<svg t="1659376969015" class="icon" viewBox="0 0 1024 1024" version="1.1" xmlns="http://www.w3.org/2000/svg" p-id="12439" width="200" height="200"><path d="M278.1 475.3l215.7-215.7c11.3-11.3 29.6-11.3 40.9 0l215.7 215.7c7.3 7.3 7.3 19 0 26.3-7.3 7.3-19 7.3-26.3 0L532.9 310.2v446.6c0 10.3-8.3 18.6-18.6 18.6s-18.6-8.3-18.6-18.6V310.2L304.4 501.6c-7.3 7.3-19 7.3-26.3 0-7.2-7.3-7.2-19.1 0-26.3z m-174.2 36.3c0 225.4 183.4 408.8 408.8 408.8S921.5 737 921.5 511.6 738.1 102.8 512.7 102.8 103.9 286.2 103.9 511.6m-37.1 0c0-245.9 200.1-446 446-446s446 200.1 446 446-200.1 446-446 446-446-200-446-446" p-id="12440"></path></svg>