<svg t="1659376663542" class="icon" viewBox="0 0 1024 1024" version="1.1" xmlns="http://www.w3.org/2000/svg" p-id="10394" width="32" height="32"><path d="M512 954.88c-243.712 0-442.88-199.168-442.88-442.88s199.168-442.88 442.88-442.88 442.88 199.168 442.88 442.88-199.168 442.88-442.88 442.88z m0-63.488c208.896 0 379.392-170.496 379.392-379.392s-170.496-379.392-379.392-379.392-379.392 170.496-379.392 379.392 170.496 379.392 379.392 379.392z m221.184-379.392c0 18.944-12.8 31.744-31.744 31.744h-379.392c-18.944 0-31.744-12.8-31.744-31.744s12.8-31.744 31.744-31.744h379.392c19.456 0 31.744 12.8 31.744 31.744z" p-id="10395"></path></svg>