<svg t="1659377252625" class="icon" viewBox="0 0 1024 1024" version="1.1" xmlns="http://www.w3.org/2000/svg" p-id="14202" width="200" height="200">
  <path d="M832 128H192c-70.4 0-128 57.6-128 128v608c0 51.2 44.8 96 96 96h704c51.2 0 96-44.8 96-96V256c0-70.4-57.6-128-128-128z m64 736c0 19.2-12.8 32-32 32h-704c-19.2 0-32-12.8-32-32V256c0-38.4 25.6-64 64-64h640c38.4 0 64 32 64 64v608z"  p-id="14203"></path>
  <path d="M710.4 473.6l-121.6-19.2-57.6-108.8c0-6.4-12.8-12.8-19.2-12.8-6.4 0-19.2 6.4-19.2 12.8l-57.6 108.8-121.6 19.2c-6.4 0-19.2 6.4-19.2 19.2 0 6.4 0 19.2 6.4 25.6L384 601.6l-19.2 121.6c0 6.4 0 19.2 12.8 25.6 6.4 6.4 19.2 6.4 25.6 0l108.8-51.2 108.8 57.6h12.8c6.4 0 12.8 0 12.8-6.4 6.4-6.4 12.8-12.8 12.8-25.6l-25.6-121.6L723.2 512c6.4-6.4 6.4-19.2 6.4-25.6 0 0-6.4-6.4-19.2-12.8z m-121.6 128l12.8 89.6-76.8-38.4h-25.6l-76.8 38.4 12.8-89.6c0-6.4 0-19.2-6.4-19.2l-64-64 89.6-12.8c6.4 0 12.8-6.4 19.2-12.8L512 409.6l38.4 76.8c6.4 6.4 12.8 12.8 19.2 12.8l89.6 12.8-64 64c-6.4 6.4-12.8 19.2-6.4 25.6z" p-id="14204"></path>
</svg>